<mxfile host="app.diagrams.net" modified="2022-10-08T03:51:22.308Z" agent="5.0 (Macintosh; Intel Mac OS X 10_15_7) AppleWebKit/605.1.15 (KHTML, like Gecko) Version/14.1.2 Safari/605.1.15" etag="hBpZQFbfUXKEpC3DNNvp" version="20.4.0" type="github">
  <diagram id="zloy9zrLZ1wWkiFGT145" name="Page-1">
    <mxGraphModel dx="1183" dy="806" grid="1" gridSize="10" guides="1" tooltips="1" connect="1" arrows="1" fold="1" page="1" pageScale="1" pageWidth="1169" pageHeight="1654" math="0" shadow="0">
      <root>
        <mxCell id="0" />
        <mxCell id="1" parent="0" />
        <mxCell id="oYzulSO1W2avh9bHJtCn-14" value="&lt;div style=&quot;font-size: 13px;&quot; title=&quot;Page 2&quot; class=&quot;page&quot;&gt;&lt;div style=&quot;background-color: rgb(255, 255, 255); font-size: 13px;&quot; class=&quot;section&quot;&gt;&lt;div class=&quot;layoutArea&quot; style=&quot;font-size: 13px;&quot;&gt;&lt;div class=&quot;column&quot; style=&quot;font-size: 13px;&quot;&gt;&lt;ol style=&quot;list-style-type: none; font-size: 13px;&quot; start=&quot;0&quot;&gt;&lt;li style=&quot;font-size: 13px;&quot;&gt;&lt;p style=&quot;font-size: 13px;&quot;&gt;&lt;font face=&quot;Verdana&quot; style=&quot;font-size: 13px;&quot;&gt;Q:&amp;nbsp;&lt;/font&gt;&lt;span style=&quot;font-family: Verdana; font-size: 13px;&quot;&gt;design with 0 downtime capabilities&lt;/span&gt;&lt;/p&gt;&lt;p style=&quot;font-size: 13px;&quot;&gt;&lt;span style=&quot;font-family: Verdana; font-size: 13px;&quot;&gt;A: bisa menerapkan desain sebgai berikut:&amp;nbsp;&lt;/span&gt;&lt;/p&gt;&lt;p style=&quot;font-size: 13px;&quot;&gt;&lt;span style=&quot;font-family: Verdana; font-size: 13px;&quot;&gt;- blue-green deployment&lt;/span&gt;&lt;/p&gt;&lt;p style=&quot;font-size: 13px;&quot;&gt;&lt;span style=&quot;font-family: Verdana; font-size: 13px;&quot;&gt;- canary deployment&lt;/span&gt;&lt;/p&gt;&lt;p style=&quot;font-size: 13px;&quot;&gt;&lt;span style=&quot;font-family: Verdana; font-size: 13px;&quot;&gt;- rolling deployment&lt;/span&gt;&lt;/p&gt;&lt;div style=&quot;font-size: 13px;&quot; title=&quot;Page 2&quot; class=&quot;page&quot;&gt;&lt;div class=&quot;section&quot; style=&quot;font-size: 13px;&quot;&gt;&lt;div class=&quot;layoutArea&quot; style=&quot;font-size: 13px;&quot;&gt;&lt;div class=&quot;column&quot; style=&quot;font-size: 13px;&quot;&gt;&lt;ol style=&quot;list-style-type: none; font-size: 13px;&quot; start=&quot;0&quot;&gt;&lt;li style=&quot;font-size: 13px;&quot;&gt;&lt;p style=&quot;font-size: 13px;&quot;&gt;&lt;/p&gt;&lt;/li&gt;&lt;/ol&gt;&lt;/div&gt;&lt;/div&gt;&lt;/div&gt;&lt;/div&gt;&lt;/li&gt;&lt;/ol&gt;&lt;/div&gt;&lt;/div&gt;&lt;/div&gt;&lt;/div&gt;" style="text;html=1;align=left;verticalAlign=middle;resizable=0;points=[];autosize=1;strokeColor=none;fillColor=none;fontSize=13;" vertex="1" parent="1">
          <mxGeometry x="40" y="1376" width="350" height="170" as="geometry" />
        </mxCell>
        <mxCell id="tNd2uU0bsCmuSxHjag_w-1" value="" style="group;movable=1;resizable=1;rotatable=1;deletable=1;editable=1;connectable=1;labelBackgroundColor=default;" parent="1" vertex="1" connectable="0">
          <mxGeometry x="70" y="110" width="1004.51" height="471.2244897959184" as="geometry" />
        </mxCell>
        <mxCell id="tNd2uU0bsCmuSxHjag_w-3" value="Actor" style="shape=umlActor;verticalLabelPosition=bottom;verticalAlign=top;html=1;outlineConnect=0;" parent="tNd2uU0bsCmuSxHjag_w-1" vertex="1">
          <mxGeometry width="24.500243902439024" height="57.55102040816326" as="geometry" />
        </mxCell>
        <mxCell id="tNd2uU0bsCmuSxHjag_w-4" value="Actor" style="shape=umlActor;verticalLabelPosition=bottom;verticalAlign=top;html=1;outlineConnect=0;" parent="tNd2uU0bsCmuSxHjag_w-1" vertex="1">
          <mxGeometry y="115.10204081632652" width="24.500243902439024" height="57.55102040816326" as="geometry" />
        </mxCell>
        <mxCell id="tNd2uU0bsCmuSxHjag_w-5" value="Actor" style="shape=umlActor;verticalLabelPosition=bottom;verticalAlign=top;html=1;outlineConnect=0;" parent="tNd2uU0bsCmuSxHjag_w-1" vertex="1">
          <mxGeometry y="230.20408163265304" width="24.500243902439024" height="57.55102040816326" as="geometry" />
        </mxCell>
        <mxCell id="tNd2uU0bsCmuSxHjag_w-6" value="" style="endArrow=none;html=1;rounded=0;" parent="tNd2uU0bsCmuSxHjag_w-1" edge="1">
          <mxGeometry width="50" height="50" relative="1" as="geometry">
            <mxPoint x="40.833739837398376" y="38.367346938775505" as="sourcePoint" />
            <mxPoint x="130.66796747967481" y="38.367346938775505" as="targetPoint" />
          </mxGeometry>
        </mxCell>
        <mxCell id="tNd2uU0bsCmuSxHjag_w-7" value="" style="endArrow=none;html=1;rounded=0;" parent="tNd2uU0bsCmuSxHjag_w-1" edge="1">
          <mxGeometry width="50" height="50" relative="1" as="geometry">
            <mxPoint x="40.833739837398376" y="153.46938775510202" as="sourcePoint" />
            <mxPoint x="130.66796747967481" y="153.46938775510202" as="targetPoint" />
          </mxGeometry>
        </mxCell>
        <mxCell id="tNd2uU0bsCmuSxHjag_w-8" value="" style="endArrow=none;html=1;rounded=0;" parent="tNd2uU0bsCmuSxHjag_w-1" edge="1">
          <mxGeometry width="50" height="50" relative="1" as="geometry">
            <mxPoint x="32.666991869918704" y="268.57142857142856" as="sourcePoint" />
            <mxPoint x="130.66796747967481" y="268.57142857142856" as="targetPoint" />
          </mxGeometry>
        </mxCell>
        <mxCell id="tNd2uU0bsCmuSxHjag_w-9" value="" style="endArrow=none;html=1;rounded=0;" parent="tNd2uU0bsCmuSxHjag_w-1" edge="1">
          <mxGeometry width="50" height="50" relative="1" as="geometry">
            <mxPoint x="130.66796747967481" y="38.367346938775505" as="sourcePoint" />
            <mxPoint x="130.66796747967481" y="268.57142857142856" as="targetPoint" />
          </mxGeometry>
        </mxCell>
        <mxCell id="tNd2uU0bsCmuSxHjag_w-10" value="" style="endArrow=classic;html=1;rounded=0;" parent="tNd2uU0bsCmuSxHjag_w-1" edge="1">
          <mxGeometry width="50" height="50" relative="1" as="geometry">
            <mxPoint x="130.66796747967481" y="153.46938775510202" as="sourcePoint" />
            <mxPoint x="261.33593495934963" y="153.46938775510202" as="targetPoint" />
          </mxGeometry>
        </mxCell>
        <mxCell id="tNd2uU0bsCmuSxHjag_w-11" value="Commit Code" style="text;html=1;align=center;verticalAlign=middle;resizable=0;points=[];autosize=1;strokeColor=none;fillColor=none;labelBackgroundColor=default;" parent="tNd2uU0bsCmuSxHjag_w-1" vertex="1">
          <mxGeometry x="88.85146341463414" y="137.27204081632652" width="100" height="30" as="geometry" />
        </mxCell>
        <mxCell id="tNd2uU0bsCmuSxHjag_w-12" value="GitLab" style="rounded=0;whiteSpace=wrap;html=1;rotation=90;fillColor=#ffe6cc;strokeColor=#d79b00;" parent="tNd2uU0bsCmuSxHjag_w-1" vertex="1">
          <mxGeometry x="188.85604674796747" y="123.49489795918366" width="202.12701219512198" height="57.55102040816326" as="geometry" />
        </mxCell>
        <mxCell id="tNd2uU0bsCmuSxHjag_w-13" value="" style="endArrow=classic;html=1;rounded=0;" parent="tNd2uU0bsCmuSxHjag_w-1" edge="1">
          <mxGeometry width="50" height="50" relative="1" as="geometry">
            <mxPoint x="318.5031707317073" y="151.7908163265306" as="sourcePoint" />
            <mxPoint x="392.0039024390244" y="151.55102040816325" as="targetPoint" />
            <Array as="points">
              <mxPoint x="383.83715447154475" y="151.55102040816325" />
            </Array>
          </mxGeometry>
        </mxCell>
        <mxCell id="tNd2uU0bsCmuSxHjag_w-15" value="" style="endArrow=classic;html=1;rounded=0;" parent="tNd2uU0bsCmuSxHjag_w-1" edge="1">
          <mxGeometry width="50" height="50" relative="1" as="geometry">
            <mxPoint x="494.0882520325203" y="152.1073469387755" as="sourcePoint" />
            <mxPoint x="567.5889837398374" y="151.86755102040826" as="targetPoint" />
            <Array as="points">
              <mxPoint x="559.4222357723578" y="151.86755102040814" />
            </Array>
          </mxGeometry>
        </mxCell>
        <mxCell id="tNd2uU0bsCmuSxHjag_w-14" value="Run build Ci&lt;br&gt;Testing code" style="rounded=0;whiteSpace=wrap;html=1;fillColor=#dae8fc;strokeColor=#6c8ebf;" parent="tNd2uU0bsCmuSxHjag_w-1" vertex="1">
          <mxGeometry x="396.08727642276426" y="123.49489795918366" width="98.0009756097561" height="57.55102040816326" as="geometry" />
        </mxCell>
        <mxCell id="tNd2uU0bsCmuSxHjag_w-16" value="On Every Commit" style="text;html=1;align=center;verticalAlign=middle;resizable=0;points=[];autosize=1;strokeColor=none;fillColor=none;labelBackgroundColor=default;" parent="tNd2uU0bsCmuSxHjag_w-1" vertex="1">
          <mxGeometry x="229.91642276422766" y="257.75673469387755" width="120" height="30" as="geometry" />
        </mxCell>
        <mxCell id="tNd2uU0bsCmuSxHjag_w-17" value="On every Commit&lt;br&gt;to Master Branch" style="text;html=1;align=center;verticalAlign=middle;resizable=0;points=[];autosize=1;strokeColor=none;fillColor=none;" parent="tNd2uU0bsCmuSxHjag_w-1" vertex="1">
          <mxGeometry x="465.7347560975611" y="247.7595918367347" width="120" height="40" as="geometry" />
        </mxCell>
        <mxCell id="tNd2uU0bsCmuSxHjag_w-18" value="Build Docker images" style="rounded=0;whiteSpace=wrap;html=1;fillColor=#0050ef;fontColor=#ffffff;strokeColor=#001DBC;" parent="tNd2uU0bsCmuSxHjag_w-1" vertex="1">
          <mxGeometry x="571.6723577235773" y="123.49489795918366" width="98.0009756097561" height="57.55102040816326" as="geometry" />
        </mxCell>
        <mxCell id="tNd2uU0bsCmuSxHjag_w-19" value="" style="endArrow=classic;html=1;rounded=0;" parent="tNd2uU0bsCmuSxHjag_w-1" edge="1">
          <mxGeometry width="50" height="50" relative="1" as="geometry">
            <mxPoint x="669.6733333333333" y="152.5102040816327" as="sourcePoint" />
            <mxPoint x="743.1740650406504" y="152.27040816326556" as="targetPoint" />
            <Array as="points">
              <mxPoint x="735.0073170731708" y="152.2704081632653" />
            </Array>
          </mxGeometry>
        </mxCell>
        <mxCell id="tNd2uU0bsCmuSxHjag_w-20" style="edgeStyle=orthogonalEdgeStyle;rounded=0;orthogonalLoop=1;jettySize=auto;html=1;" parent="tNd2uU0bsCmuSxHjag_w-1" source="tNd2uU0bsCmuSxHjag_w-21" edge="1">
          <mxGeometry relative="1" as="geometry">
            <mxPoint x="792.1745528455285" y="383.6734693877551" as="targetPoint" />
          </mxGeometry>
        </mxCell>
        <mxCell id="tNd2uU0bsCmuSxHjag_w-21" value="Deploy to Stagging" style="rounded=0;whiteSpace=wrap;html=1;fillColor=#d80073;fontColor=#ffffff;strokeColor=#A50040;" parent="tNd2uU0bsCmuSxHjag_w-1" vertex="1">
          <mxGeometry x="743.1740650406504" y="123.49489795918366" width="98.0009756097561" height="57.55102040816326" as="geometry" />
        </mxCell>
        <mxCell id="tNd2uU0bsCmuSxHjag_w-22" value="env: Stagging" style="text;html=1;align=center;verticalAlign=middle;resizable=0;points=[];autosize=1;strokeColor=none;fillColor=none;" parent="tNd2uU0bsCmuSxHjag_w-1" vertex="1">
          <mxGeometry x="841.1750406504066" y="115.10204081632652" width="100" height="30" as="geometry" />
        </mxCell>
        <mxCell id="tNd2uU0bsCmuSxHjag_w-23" value="" style="rounded=0;whiteSpace=wrap;html=1;rotation=-180;fillColor=#fad7ac;strokeColor=#b46504;" parent="tNd2uU0bsCmuSxHjag_w-1" vertex="1">
          <mxGeometry x="686.0068292682927" y="244.59183673469389" width="308.29473577235774" height="28.77551020408163" as="geometry" />
        </mxCell>
        <mxCell id="tNd2uU0bsCmuSxHjag_w-24" value="Deploy to Production" style="rounded=0;whiteSpace=wrap;html=1;fillColor=#008a00;fontColor=#ffffff;strokeColor=#005700;" parent="tNd2uU0bsCmuSxHjag_w-1" vertex="1">
          <mxGeometry x="743.1740650406504" y="383.6734693877551" width="98.0009756097561" height="57.55102040816326" as="geometry" />
        </mxCell>
        <mxCell id="tNd2uU0bsCmuSxHjag_w-25" value="env: Production" style="text;html=1;align=center;verticalAlign=middle;resizable=0;points=[];autosize=1;strokeColor=none;fillColor=none;" parent="tNd2uU0bsCmuSxHjag_w-1" vertex="1">
          <mxGeometry x="841.1784146341463" y="397.4534693877551" width="110" height="30" as="geometry" />
        </mxCell>
        <mxCell id="tNd2uU0bsCmuSxHjag_w-26" value="Require Manual Interaction to make sure&lt;br&gt;everything running well" style="text;html=1;align=center;verticalAlign=middle;resizable=1;points=[];autosize=1;strokeColor=none;fillColor=none;movable=1;rotatable=1;deletable=1;editable=1;connectable=1;" parent="tNd2uU0bsCmuSxHjag_w-1" vertex="1">
          <mxGeometry x="789.9980487804879" y="273.3673469387755" width="240" height="40" as="geometry" />
        </mxCell>
        <mxCell id="tNd2uU0bsCmuSxHjag_w-27" value="On every Commit&lt;br&gt;to Master Branch" style="text;html=1;align=center;verticalAlign=middle;resizable=0;points=[];autosize=1;strokeColor=none;fillColor=none;" parent="tNd2uU0bsCmuSxHjag_w-1" vertex="1">
          <mxGeometry x="677.840081300813" y="201.4285714285714" width="120" height="40" as="geometry" />
        </mxCell>
        <mxCell id="tNd2uU0bsCmuSxHjag_w-28" value="stagging-dev.com" style="text;html=1;align=center;verticalAlign=middle;resizable=0;points=[];autosize=1;strokeColor=none;fillColor=none;" parent="tNd2uU0bsCmuSxHjag_w-1" vertex="1">
          <mxGeometry x="732.1773170731708" y="85.09938775510203" width="120" height="30" as="geometry" />
        </mxCell>
        <mxCell id="tNd2uU0bsCmuSxHjag_w-29" value="production-dev.com" style="text;html=1;align=center;verticalAlign=middle;resizable=0;points=[];autosize=1;strokeColor=none;fillColor=none;" parent="tNd2uU0bsCmuSxHjag_w-1" vertex="1">
          <mxGeometry x="727.173943089431" y="441.2244897959184" width="130" height="30" as="geometry" />
        </mxCell>
        <mxCell id="tNd2uU0bsCmuSxHjag_w-2" value="" style="rounded=0;whiteSpace=wrap;html=1;rotation=90;fillColor=#fad7ac;strokeColor=#b46504;" parent="tNd2uU0bsCmuSxHjag_w-1" vertex="1">
          <mxGeometry x="424.6708943089431" y="123.49489795918366" width="202.12701219512198" height="28.77551020408163" as="geometry" />
        </mxCell>
        <mxCell id="tNd2uU0bsCmuSxHjag_w-30" value="&lt;p style=&quot;margin: 0px; font-stretch: normal; font-size: 13px; line-height: normal; font-family: &amp;quot;Helvetica Neue&amp;quot;;&quot;&gt;the Pipeline GitOps for the deployment web application &amp;nbsp;by : chandrafebrian99@gmail.com&lt;/p&gt;&lt;p style=&quot;margin: 0px; font-stretch: normal; font-size: 13px; line-height: normal; font-family: &amp;quot;Helvetica Neue&amp;quot;;&quot;&gt;&lt;br&gt;&lt;/p&gt;" style="text;html=1;strokeColor=none;fillColor=none;align=center;verticalAlign=middle;whiteSpace=wrap;rounded=0;" parent="1" vertex="1">
          <mxGeometry x="30" y="40" width="540" height="30" as="geometry" />
        </mxCell>
        <mxCell id="oYzulSO1W2avh9bHJtCn-2" value="&lt;div style=&quot;text-align: left; font-size: 13px;&quot;&gt;&lt;br style=&quot;font-size: 13px;&quot;&gt;&lt;/div&gt;&lt;div style=&quot;text-align: left; font-size: 13px;&quot;&gt;Q :&amp;nbsp;&lt;span style=&quot;font-family: &amp;quot;Helvetica Neue&amp;quot;; font-size: 13px;&quot;&gt;Explain your proposed solution&lt;/span&gt;&lt;/div&gt;&lt;span style=&quot;font-family: &amp;quot;Helvetica Neue&amp;quot;; font-size: 13px;&quot;&gt;&lt;div style=&quot;text-align: left; font-size: 13px;&quot;&gt;&lt;span style=&quot;font-family: Helvetica; font-size: 13px;&quot;&gt;&lt;br style=&quot;font-size: 13px;&quot;&gt;&lt;/span&gt;&lt;/div&gt;&lt;div style=&quot;text-align: left; font-size: 13px;&quot;&gt;&lt;span style=&quot;font-family: Helvetica; font-size: 13px;&quot;&gt;A: &amp;nbsp;Saya memberikan solusi pipeline dengan metode stagging untuk pengetesan dan jika sudah tidak ada issue , baru di naikan ke production secara manual agar tidak terjadi bug jika sudah live untuk consumen&lt;/span&gt;&lt;/div&gt;&lt;/span&gt;" style="text;html=1;strokeColor=none;fillColor=none;align=center;verticalAlign=middle;whiteSpace=wrap;rounded=0;labelBackgroundColor=default;fontSize=13;" vertex="1" parent="1">
          <mxGeometry x="80" y="610" width="310" height="30" as="geometry" />
        </mxCell>
        <mxCell id="oYzulSO1W2avh9bHJtCn-4" value="&lt;p style=&quot;margin: 0px; font-stretch: normal; font-size: 13px; line-height: normal; font-family: &amp;quot;Helvetica Neue&amp;quot;;&quot;&gt;Q: Draw the system architecture with detail flow and relationship&lt;/p&gt;&lt;p style=&quot;margin: 0px; font-stretch: normal; font-size: 13px; line-height: normal; font-family: &amp;quot;Helvetica Neue&amp;quot;;&quot;&gt;&lt;br&gt;&lt;/p&gt;&lt;p style=&quot;margin: 0px; font-stretch: normal; font-size: 13px; line-height: normal; font-family: &amp;quot;Helvetica Neue&amp;quot;;&quot;&gt;A: &amp;nbsp;saya sudah membuat gambar arsiktektur pipeline dan flow yang saling berhubungan ,&amp;nbsp;&lt;/p&gt;&lt;p style=&quot;margin: 0px; font-stretch: normal; font-size: 13px; line-height: normal; font-family: &amp;quot;Helvetica Neue&amp;quot;;&quot;&gt;- dimulai dari tim development yang membuat fitur baru dengan code nya lalu mereka commit code ke gitlab&lt;/p&gt;&lt;p style=&quot;margin: 0px; font-stretch: normal; font-size: 13px; line-height: normal; font-family: &amp;quot;Helvetica Neue&amp;quot;;&quot;&gt;- gitlab otomatis pertama kali menjalankan perintah pipeline runner di bagian stage testing jika sudah lolos commit ke master branch&lt;/p&gt;&lt;p style=&quot;margin: 0px; font-stretch: normal; font-size: 13px; line-height: normal; font-family: &amp;quot;Helvetica Neue&amp;quot;;&quot;&gt;-lalu di lanjutkan kebagian build docker images auto dikirim ke docker hub registry&amp;nbsp;&lt;/p&gt;&lt;p style=&quot;margin: 0px; font-stretch: normal; font-size: 13px; line-height: normal; font-family: &amp;quot;Helvetica Neue&amp;quot;;&quot;&gt;- lalu di lanjutkan ke bagian env stagging untuk mengetes produk fitur yg sudah jadi jika lolos tes dan tidak ada bug di lanjutkan&lt;/p&gt;&lt;p style=&quot;margin: 0px; font-stretch: normal; font-size: 13px; line-height: normal; font-family: &amp;quot;Helvetica Neue&amp;quot;;&quot;&gt;- terakhir di kirim ke env production secara manual bisa di setting 30% dahulu untuk memastikan tidak ada masalah saat live dan juga membuat zero downtime&amp;nbsp;&lt;/p&gt;&lt;p style=&quot;margin: 0px; font-stretch: normal; font-size: 13px; line-height: normal; font-family: &amp;quot;Helvetica Neue&amp;quot;;&quot;&gt;- selanjutnya roll out 100%&amp;nbsp;&lt;/p&gt;" style="text;html=1;strokeColor=none;fillColor=none;align=left;verticalAlign=middle;whiteSpace=wrap;rounded=0;labelBackgroundColor=default;" vertex="1" parent="1">
          <mxGeometry x="80" y="840" width="380" height="30" as="geometry" />
        </mxCell>
        <mxCell id="oYzulSO1W2avh9bHJtCn-9" value="&lt;div style=&quot;text-align: start; font-size: 13px;&quot; title=&quot;Page 2&quot; class=&quot;page&quot;&gt;&lt;div style=&quot;background-color: rgb(255, 255, 255); font-size: 13px;&quot; class=&quot;section&quot;&gt;&lt;div class=&quot;layoutArea&quot; style=&quot;font-size: 13px;&quot;&gt;&lt;div class=&quot;column&quot; style=&quot;font-size: 13px;&quot;&gt;&lt;ol style=&quot;list-style-type: none; font-size: 13px;&quot; start=&quot;0&quot;&gt;&lt;li style=&quot;font-size: 13px;&quot;&gt;&lt;p style=&quot;font-size: 13px;&quot;&gt;&lt;span style=&quot;font-family: Verdana; font-size: 13px;&quot;&gt;&lt;font style=&quot;font-size: 13px;&quot;&gt;Q: Explain the cost wise&lt;/font&gt;&lt;/span&gt;&lt;/p&gt;&lt;p style=&quot;font-size: 13px;&quot;&gt;&lt;font face=&quot;Verdana&quot; style=&quot;font-size: 13px;&quot;&gt;A: kita harus memastikan mempunyai semua data&lt;/font&gt;&lt;/p&gt;&lt;p style=&quot;font-size: 13px;&quot;&gt;- kita&lt;span style=&quot;font-family: inherit;&quot;&gt;&amp;nbsp;harus memiliki perincian biaya penyedia cloud untuk mengetahui berapa banyak yang dipakai untuk sebuah proyek atau server.&lt;/span&gt;.&lt;br&gt;&lt;/p&gt;&lt;p style=&quot;font-size: 13px;&quot;&gt;-&amp;nbsp;&lt;span style=&quot;font-family: inherit; font-size: 13px;&quot;&gt;Membangun statistik waktu.&lt;/span&gt;&lt;/p&gt;&lt;p style=&quot;font-size: 13px;&quot;&gt;-&amp;nbsp;&lt;span style=&quot;font-family: inherit; font-size: 13px;&quot;&gt;Tingkat keberhasilan pembuatan dan penerapan dari waktu ke waktu.&lt;/span&gt;.&lt;/p&gt;&lt;p style=&quot;font-size: 13px;&quot;&gt;-&amp;nbsp;&lt;span style=&quot;font-family: inherit; font-size: 13px;&quot;&gt;Berapa lama waktu yang dibutuhkan tim develepor baru untuk bergabung ke dalam tim.&lt;/span&gt;&lt;/p&gt;&lt;p style=&quot;font-size: 13px;&quot;&gt;&lt;span style=&quot;font-family: inherit; font-size: 13px;&quot;&gt;- dengan loadbalancer auto scaling untuk reduce cost server&lt;/span&gt;&lt;/p&gt;&lt;p style=&quot;font-size: 13px;&quot;&gt;&lt;span style=&quot;font-family: inherit; font-size: 13px;&quot;&gt;&lt;br style=&quot;font-size: 13px;&quot;&gt;&lt;/span&gt;&lt;/p&gt;&lt;p style=&quot;font-size: 13px;&quot;&gt;&lt;span style=&quot;font-family: inherit; font-size: 13px;&quot;&gt;setidaknya memerlukan metrik karena tiga alasan:&lt;/span&gt;&lt;/p&gt;&lt;p style=&quot;font-size: 13px;&quot;&gt;&lt;span style=&quot;font-family: inherit; font-size: 13px;&quot;&gt;1.Visibilitas – kita harus menyadari biayanya terlebih dahulu.&lt;/span&gt;&lt;/p&gt;&lt;p style=&quot;font-size: 13px;&quot;&gt;&lt;span style=&quot;font-family: inherit; font-size: 13px;&quot;&gt;2.Saat mengambil keputusan, kita harus memiliki tolak ukur.&lt;/span&gt;&lt;/p&gt;&lt;p style=&quot;font-size: 13px;&quot;&gt;&lt;span style=&quot;font-family: inherit; font-size: 13px;&quot;&gt;3.melihat dampak tindakan kita saat bekerja untuk mengurangi biaya.&lt;/span&gt;&lt;/p&gt;&lt;/li&gt;&lt;/ol&gt;&lt;/div&gt;&lt;/div&gt;&lt;/div&gt;&lt;/div&gt;" style="text;html=1;align=center;verticalAlign=middle;resizable=0;points=[];autosize=1;strokeColor=none;fillColor=none;fontSize=13;" vertex="1" parent="1">
          <mxGeometry x="31" y="1015" width="830" height="360" as="geometry" />
        </mxCell>
        <mxCell id="oYzulSO1W2avh9bHJtCn-10" value="1." style="text;html=1;align=center;verticalAlign=middle;resizable=0;points=[];autosize=1;strokeColor=none;fillColor=none;labelBackgroundColor=default;fontSize=20;" vertex="1" parent="1">
          <mxGeometry x="24.996422764227646" y="581.2267346938776" width="40" height="40" as="geometry" />
        </mxCell>
        <mxCell id="oYzulSO1W2avh9bHJtCn-11" value="2." style="text;html=1;align=center;verticalAlign=middle;resizable=0;points=[];autosize=1;strokeColor=none;fillColor=none;labelBackgroundColor=default;fontSize=20;" vertex="1" parent="1">
          <mxGeometry x="29.996422764227646" y="709.9967346938776" width="40" height="40" as="geometry" />
        </mxCell>
        <mxCell id="oYzulSO1W2avh9bHJtCn-12" value="3." style="text;html=1;align=center;verticalAlign=middle;resizable=0;points=[];autosize=1;strokeColor=none;fillColor=none;labelBackgroundColor=default;fontSize=20;" vertex="1" parent="1">
          <mxGeometry x="29.996422764227646" y="1025.9967346938774" width="40" height="40" as="geometry" />
        </mxCell>
        <mxCell id="oYzulSO1W2avh9bHJtCn-13" value="4." style="text;html=1;align=center;verticalAlign=middle;resizable=0;points=[];autosize=1;strokeColor=none;fillColor=none;labelBackgroundColor=default;fontSize=20;" vertex="1" parent="1">
          <mxGeometry x="29.996422764227646" y="1385.9967346938774" width="40" height="40" as="geometry" />
        </mxCell>
        <mxCell id="oYzulSO1W2avh9bHJtCn-15" value="&lt;div style=&quot;font-size: 13px;&quot; title=&quot;Page 2&quot; class=&quot;page&quot;&gt;&lt;div style=&quot;background-color: rgb(255, 255, 255); font-size: 13px;&quot; class=&quot;section&quot;&gt;&lt;div class=&quot;layoutArea&quot; style=&quot;font-size: 13px;&quot;&gt;&lt;div class=&quot;column&quot; style=&quot;font-size: 13px;&quot;&gt;&lt;ol style=&quot;list-style-type: none; font-size: 13px;&quot; start=&quot;0&quot;&gt;&lt;li style=&quot;font-size: 13px;&quot;&gt;&lt;p style=&quot;font-size: 13px;&quot;&gt;&lt;font face=&quot;Verdana&quot; style=&quot;font-size: 13px;&quot;&gt;Q:&amp;nbsp;&lt;/font&gt;&lt;span style=&quot;font-family: Verdana; font-size: 13px;&quot;&gt;design with DRC capabilities&lt;/span&gt;&lt;/p&gt;&lt;p style=&quot;font-size: 13px;&quot;&gt;&lt;span style=&quot;font-family: Verdana; font-size: 13px;&quot;&gt;A:&amp;nbsp;&lt;/span&gt;&lt;/p&gt;&lt;div style=&quot;font-size: 13px;&quot; title=&quot;Page 2&quot; class=&quot;page&quot;&gt;&lt;div class=&quot;section&quot; style=&quot;font-size: 13px;&quot;&gt;&lt;div class=&quot;layoutArea&quot; style=&quot;font-size: 13px;&quot;&gt;&lt;div class=&quot;column&quot; style=&quot;font-size: 13px;&quot;&gt;&lt;ol style=&quot;list-style-type: none; font-size: 13px;&quot; start=&quot;0&quot;&gt;&lt;li style=&quot;font-size: 13px;&quot;&gt;&lt;p style=&quot;font-size: 13px;&quot;&gt;&lt;/p&gt;&lt;/li&gt;&lt;/ol&gt;&lt;/div&gt;&lt;/div&gt;&lt;/div&gt;&lt;/div&gt;&lt;/li&gt;&lt;/ol&gt;&lt;/div&gt;&lt;/div&gt;&lt;/div&gt;&lt;/div&gt;" style="text;html=1;align=left;verticalAlign=middle;resizable=0;points=[];autosize=1;strokeColor=none;fillColor=none;fontSize=13;" vertex="1" parent="1">
          <mxGeometry x="30" y="1540" width="270" height="80" as="geometry" />
        </mxCell>
        <mxCell id="oYzulSO1W2avh9bHJtCn-16" value="5." style="text;html=1;align=center;verticalAlign=middle;resizable=0;points=[];autosize=1;strokeColor=none;fillColor=none;labelBackgroundColor=default;fontSize=20;" vertex="1" parent="1">
          <mxGeometry x="29.996422764227646" y="1549.9967346938774" width="40" height="40" as="geometry" />
        </mxCell>
      </root>
    </mxGraphModel>
  </diagram>
</mxfile>
